<?xml version="1.0" encoding="UTF-8"?>
<svg version="1.1" xmlns="http://www.w3.org/2000/svg" width="150" height="150">
<path d="M0 0 C49.5 0 99 0 150 0 C150 49.5 150 99 150 150 C100.5 150 51 150 0 150 C0 100.5 0 51 0 0 Z " fill="#0C0809" transform="translate(0,0)"/>
<path d="M0 0 C1.80859375 1.48046875 1.80859375 1.48046875 3.25 2.875 C5.90845956 5.40568512 5.90845956 5.40568512 9.6875 4.8125 C10.36683594 4.68230469 11.04617187 4.55210938 11.74609375 4.41796875 C22.00670536 2.51522102 30.66145318 4.80271017 39.32421875 10.5390625 C45.28412366 15.32969083 49.58306447 21.7491934 52 29 C53.03335707 40.92595706 50.79071691 50.69575201 43.06640625 59.98828125 C35.52317252 67.33188309 28.08942855 69.26762331 17.86401367 69.32348633 C11.1441162 69.20876232 5.22239032 67.62748749 -0.03125 63.34375 C-2.81808404 61.44162518 -4.96177702 62.1841156 -8.16796875 62.66796875 C-15.22691717 63.4955696 -22.70607813 63.57964695 -29.70703125 62.34765625 C-33.30181655 61.96813562 -34.25227009 62.19438616 -37.0625 64.3125 C-44.65810834 69.91687063 -53.91177635 70.15078908 -63 69 C-66.78178326 67.86008344 -69.76832348 66.24838348 -73 64 C-73.96486328 63.38318359 -73.96486328 63.38318359 -74.94921875 62.75390625 C-81.31925763 58.09728346 -85.61436554 49.71336515 -87 42 C-87.80073102 32.22184238 -86.27537202 23.76164434 -80 16 C-73.54152204 9.08309146 -66.72079398 4.63265319 -57.13671875 3.73046875 C-52.85435457 3.66531521 -48.93349232 3.99638601 -44.75 4.875 C-41.1826981 5.36278622 -41.1826981 5.36278622 -39.33984375 3.87109375 C-38.20634529 2.80190726 -37.08174672 1.7232298 -35.96484375 0.63671875 C-25.27278397 -8.2697883 -11.31194848 -6.18075536 0 0 Z " fill="#D1D3D3" transform="translate(93,42)"/>
<path d="M0 0 C-0.3609375 0.69222656 -0.721875 1.38445313 -1.09375 2.09765625 C-5.87169892 12.17116522 -6.85149048 22.12918972 -3.5 32.875 C-1.13128269 38.56331756 2.65402399 42.71649181 7 47 C7.57621094 47.5775 8.15242188 48.155 8.74609375 48.75 C9.36677734 49.36875 9.36677734 49.36875 10 50 C2.84278833 56.48622308 -4.12658522 57.64140486 -13.52734375 57.41015625 C-21.0867211 56.51731641 -27.35009615 52.71988904 -32.4609375 47.13671875 C-37.8766002 39.61801952 -40.43054655 31.19058678 -39 22 C-36.84793422 13.48035137 -32.0717858 6.25314772 -24.5 1.625 C-16.23091552 -2.2142178 -8.48640251 -3.75188322 0 0 Z " fill="#100B0C" transform="translate(48,51)"/>
<path d="M0 0 C5.91077292 4.98588579 9.44756283 11.46286586 10.69140625 19.08984375 C11.06471114 28.44655027 8.37777675 35.70691014 2.4375 42.875 C-2.84587852 48.45409 -8.81024169 51.55258393 -16.4765625 52.23828125 C-23.540398 52.41534309 -29.68311971 51.76834766 -35.8125 48 C-37.58984375 45.859375 -37.58984375 45.859375 -38.8125 44 C-38.22082031 43.53851563 -37.62914063 43.07703125 -37.01953125 42.6015625 C-30.20529718 36.97676243 -26.59272452 31.34067356 -23.8125 23 C-23.17599362 13.47688533 -23.42294884 5.08432674 -28.8125 -3 C-28.8125 -3.99 -28.8125 -4.98 -28.8125 -6 C-18.19029891 -8.65555027 -8.9336597 -6.15129094 0 0 Z " fill="#0F0B0C" transform="translate(131.8125,56)"/>
<path d="M0 0 C1.62982544 2.13977082 3.20418229 4.29749637 4.7265625 6.515625 C10.35899651 14.62818427 16.39487404 21.05695041 25 26 C23.48328036 30.55015893 19.83108947 32.50057264 16 35 C10.38428041 30.50742433 8.4756046 24.60512376 6 18 C5.6281307 23.09770828 6.76636141 26.31465455 9 30.875 C9.556875 32.02742188 10.11375 33.17984375 10.6875 34.3671875 C11.120625 35.23601562 11.55375 36.10484375 12 37 C5.39082337 40.05598626 -1.78998632 39.85600365 -8.75 38 C-9.4925 37.67 -10.235 37.34 -11 37 C-9.93943721 34.79729267 -8.89060532 32.85122324 -7.4375 30.875 C-5.36203136 26.72406272 -5.25823557 22.58590757 -5 18 C-5.32613281 18.80824219 -5.65226562 19.61648437 -5.98828125 20.44921875 C-6.64376953 22.05216797 -6.64376953 22.05216797 -7.3125 23.6875 C-7.95638672 25.27111328 -7.95638672 25.27111328 -8.61328125 26.88671875 C-9.89032901 29.7537809 -11.32404122 32.35090386 -13 35 C-16.39192363 34.40716379 -18.2107757 33.23256811 -20.75 30.9375 C-21.36359375 30.38964844 -21.9771875 29.84179688 -22.609375 29.27734375 C-23.06828125 28.85582031 -23.5271875 28.43429688 -24 28 C-22.80823498 24.42470494 -22.00634913 24.13942422 -18.875 22.25 C-9.82398747 16.37829883 -5.11080276 9.46042212 0 0 Z " fill="#161213" transform="translate(75,63)"/>
<path d="M0 0 C2.20368799 1.25505278 4.15903366 2.47265545 6.05078125 4.16796875 C6.05078125 5.15796875 6.05078125 6.14796875 6.05078125 7.16796875 C4.51171875 8.421875 4.51171875 8.421875 2.42578125 9.73046875 C-2.60979125 13.26970565 -5.14258092 17.78857957 -7.94921875 23.16796875 C-10.42781783 20.96708385 -11.56132241 19.10423906 -12.63671875 15.98046875 C-12.88808594 15.26503906 -13.13945313 14.54960938 -13.3984375 13.8125 C-13.58019531 13.26980469 -13.76195313 12.72710937 -13.94921875 12.16796875 C-15.5389384 14.55254823 -16.81663468 16.79838115 -18.07421875 19.35546875 C-18.42742187 20.07089844 -18.780625 20.78632812 -19.14453125 21.5234375 C-19.41007812 22.06613281 -19.675625 22.60882813 -19.94921875 23.16796875 C-23.56814122 18.74484129 -23.56814122 18.74484129 -25.08203125 16.453125 C-28.12871786 11.84274163 -31.30538729 9.17280087 -35.94921875 6.16796875 C-26.41627972 -4.55658766 -13.04071943 -5.87845902 0 0 Z " fill="#120D0E" transform="translate(89.94921875,43.83203125)"/>
<path d="M0 0 C1.80859375 1.48046875 1.80859375 1.48046875 3.25 2.875 C5.90845956 5.40568512 5.90845956 5.40568512 9.6875 4.8125 C10.36683594 4.68230469 11.04617187 4.55210938 11.74609375 4.41796875 C22.00670536 2.51522102 30.66145318 4.80271017 39.32421875 10.5390625 C45.28412366 15.32969083 49.58306447 21.7491934 52 29 C53.03335707 40.92595706 50.79071691 50.69575201 43.06640625 59.98828125 C37.46434743 65.44208142 31.08398014 68.93193366 23.25 69.0625 C22.1775 69.041875 21.105 69.02125 20 69 C20 68.67 20 68.34 20 68 C18.35 67.67 16.7 67.34 15 67 C15 66.67 15 66.34 15 66 C15.90621094 65.91363281 16.81242187 65.82726562 17.74609375 65.73828125 C27.27653157 64.63900324 34.57087214 62.90542857 41.3125 55.8125 C46.55815313 49.03260291 48.83852055 41.64806485 48.5078125 33.09375 C47.3221932 25.8705924 44.02032892 19.18395033 38.3125 14.5 C29.20394024 8.66914167 20.68319556 7.38856114 10 8 C10.34933594 8.66386719 10.69867188 9.32773437 11.05859375 10.01171875 C11.74115234 11.33623047 11.74115234 11.33623047 12.4375 12.6875 C12.88996094 13.55761719 13.34242187 14.42773438 13.80859375 15.32421875 C16.04231063 20.34092716 16.11348209 24.85741668 16.0625 30.3125 C16.05347656 31.56675781 16.04445312 32.82101563 16.03515625 34.11328125 C16.02355469 35.06589844 16.01195312 36.01851562 16 37 C12.85631684 33.56665497 12.50264388 30.75213819 12.0625 26.1875 C11.36086445 20.43648723 10.35363199 16.69508478 7 12 C3.67622519 12.59300828 1.87074452 13.68913104 -0.625 15.9375 C-1.21539062 16.46214844 -1.80578125 16.98679687 -2.4140625 17.52734375 C-3.63338745 18.65957406 -4.82341622 19.82341622 -6 21 C-6.99 21 -7.98 21 -9 21 C-6.78612631 16.0187842 -3.63117263 11.933076 1 9 C1.66 9 2.32 9 3 9 C1.78995454 5.36986361 0.96377988 5.12306422 -2.3125 3.375 C-3.09238281 2.94960938 -3.87226562 2.52421875 -4.67578125 2.0859375 C-8.98872623 0.07081363 -13.01420632 -0.23099444 -17.75 -0.5625 C-18.92046875 -0.64628906 -20.0909375 -0.73007812 -21.296875 -0.81640625 C-22.18890625 -0.87699219 -23.0809375 -0.93757813 -24 -1 C-24 -1.66 -24 -2.32 -24 -3 C-24.99 -3.33 -25.98 -3.66 -27 -4 C-17.24552661 -6.75473554 -8.76837878 -4.79096985 0 0 Z " fill="#CDCECE" transform="translate(93,42)"/>
<path d="M0 0 C3.65921923 2.43947948 5.42738594 6.47417166 6.47265625 10.62109375 C7.71385873 18.73108664 7.31725135 25.79178875 3.875 33.25 C-0.46844694 32.72163794 -2.83057129 31.26025668 -6.1875 28.5 C-7.02410156 27.82453125 -7.86070313 27.1490625 -8.72265625 26.453125 C-15.06329811 20.63829246 -15.06329811 20.63829246 -15.25 16.4375 C-13.09635156 10.33549608 -7.01358695 0.82512788 0 0 Z " fill="#130E0F" transform="translate(99.125,52.75)"/>
<path d="M0 0 C5.72413822 0.7648633 10.02211642 5.47002426 13.44140625 9.84375 C15.03708252 12.37904052 15.97475201 14.49504014 16.125 17.5 C12.94066249 24.57630558 6.7827859 29.47295133 0 33 C-0.99 33 -1.98 33 -3 33 C-6.45095988 25.81050024 -6.98039899 18.90501885 -6 11 C-4.6259329 7.1043474 -2.97265534 2.97265534 0 0 Z " fill="#130E0F" transform="translate(51,53)"/>
<path d="M0 0 C0.33 0 0.66 0 1 0 C1.67663267 10.43517946 1.06051144 17.95396226 -5.78515625 26.1328125 C-8.47518312 28.9541995 -10.25840924 30.75280308 -14 32 C-13.69381595 28.32579134 -13.24228216 27.21864487 -10.4375 24.6875 C-9.633125 24.130625 -8.82875 23.57375 -8 23 C-8.33 21.68 -8.66 20.36 -9 19 C-7.35 18.67 -5.7 18.34 -4 18 C-2.28048715 12.01955594 -0.68804496 6.19240462 0 0 Z " fill="#D9DAD9" transform="translate(107,68)"/>
<path d="M0 0 C0.33 0 0.66 0 1 0 C1.33 5.28 1.66 10.56 2 16 C1.01 16.33 0.02 16.66 -1 17 C-1.96328543 13.74794841 -2.16468233 10.76114248 -2.1875 7.375 C-2.20167969 6.41335937 -2.21585937 5.45171875 -2.23046875 4.4609375 C-2 2 -2 2 0 0 Z " fill="#D7D9D8" transform="translate(8,71)"/>
<path d="M0 0 C0.33 0 0.66 0 1 0 C0.88570603 1.77155654 0.75816963 3.54226229 0.625 5.3125 C0.55539063 6.29863281 0.48578125 7.28476563 0.4140625 8.30078125 C0 11 0 11 -2 14 C-2.99 14 -3.98 14 -5 14 C-4.04408477 8.83805777 -3.19653259 4.30837002 0 0 Z " fill="#C4C5C5" transform="translate(70,80)"/>
<path d="M0 0 C2.95183101 2.95183101 3.08663988 5.95511947 4 10 C1.23735711 10.59732819 -1.16032769 11 -4 11 C-3.52269162 9.5410574 -3.04308958 8.08286504 -2.5625 6.625 C-2.29566406 5.81289063 -2.02882813 5.00078125 -1.75390625 4.1640625 C-1 2 -1 2 0 0 Z " fill="#C7C8C8" transform="translate(75,54)"/>
<path d="M0 0 C0.66 0.33 1.32 0.66 2 1 C0.54545455 4.75757576 0.54545455 4.75757576 -1.6875 5.75 C-4.80146062 6.08664439 -7.87107191 6.06017169 -11 6 C-11 5.67 -11 5.34 -11 5 C-12.65 4.67 -14.3 4.34 -16 4 C-16 3.67 -16 3.34 -16 3 C-14.51886719 2.80083984 -14.51886719 2.80083984 -13.0078125 2.59765625 C-11.72648437 2.42105469 -10.44515625 2.24445313 -9.125 2.0625 C-7.21074219 1.80146484 -7.21074219 1.80146484 -5.2578125 1.53515625 C-2.12440546 1.18566773 -2.12440546 1.18566773 0 0 Z " fill="#C6C7C7" transform="translate(124,105)"/>
<path d="M0 0 C0.33 0.99 0.66 1.98 1 3 C-0.27126684 5.41102332 -1.57570511 7.6874917 -3 10 C-3.6802367 11.32646156 -4.35492261 12.65608877 -5 14 C-5.66 13.67 -6.32 13.34 -7 13 C-6.45820789 8.44894625 -5.37999159 4.93613994 -3 1 C-2.01 0.67 -1.02 0.34 0 0 Z " fill="#CDCFCE" transform="translate(14,59)"/>
<path d="M0 0 C1.4049404 3.89060419 0.69513239 7.23092362 0.0625 11.25 C-0.13214844 12.51328125 -0.32679687 13.7765625 -0.52734375 15.078125 C-0.68332031 16.04234375 -0.83929688 17.0065625 -1 18 C-1.66 18 -2.32 18 -3 18 C-3.0809723 15.56183415 -3.14046972 13.12635616 -3.1875 10.6875 C-3.21263672 9.99720703 -3.23777344 9.30691406 -3.26367188 8.59570312 C-3.33834499 3.44325817 -3.33834499 3.44325817 -1.48828125 1.01953125 C-0.99714844 0.68308594 -0.50601563 0.34664062 0 0 Z " fill="#D8DADA" transform="translate(45,60)"/>
<path d="M0 0 C5.28 0 10.56 0 16 0 C16 0.66 16 1.32 16 2 C12.94730154 3.52634923 10.24154311 2.83794444 6.875 2.5625 C5.59367187 2.46066406 4.31234375 2.35882813 2.9921875 2.25390625 C1.51105469 2.12822266 1.51105469 2.12822266 0 2 C0 1.34 0 0.68 0 0 Z " fill="#DEDFDF" transform="translate(68,102)"/>
<path d="M0 0 C1.77049689 -0.05410687 3.54146849 -0.09284119 5.3125 -0.125 C6.29863281 -0.14820313 7.28476563 -0.17140625 8.30078125 -0.1953125 C11 0 11 0 14 2 C13 3 13 3 9.83984375 3.09765625 C7.90818359 3.08025391 7.90818359 3.08025391 5.9375 3.0625 C4.64714844 3.05347656 3.35679688 3.04445312 2.02734375 3.03515625 C1.02832031 3.02355469 0.02929688 3.01195312 -1 3 C-0.67 2.01 -0.34 1.02 0 0 Z " fill="#D2D5D5" transform="translate(107,46)"/>
<path d="M0 0 C0.56847656 0.19335938 1.13695312 0.38671875 1.72265625 0.5859375 C6.45364938 2.18136423 11.18794425 3.66900586 16 5 C16 5.33 16 5.66 16 6 C13.91587093 5.93976506 11.83255565 5.85091679 9.75 5.75 C8.58984375 5.70359375 7.4296875 5.6571875 6.234375 5.609375 C2.53338618 4.91208725 1.32877571 3.88214816 -1 1 C-0.67 0.67 -0.34 0.34 0 0 Z " fill="#DBDDDD" transform="translate(22,104)"/>
<path d="M0 0 C0.33 0.66 0.66 1.32 1 2 C1.66 2 2.32 2 3 2 C2.54917531 3.46067199 2.08906463 4.91848032 1.625 6.375 C1.36976563 7.18710938 1.11453125 7.99921875 0.8515625 8.8359375 C0 11 0 11 -2 13 C-2.99 12.34 -3.98 11.68 -5 11 C-4.72285156 10.45730469 -4.44570312 9.91460937 -4.16015625 9.35546875 C-3.79792969 8.64003906 -3.43570313 7.92460938 -3.0625 7.1875 C-2.52302734 6.12595703 -2.52302734 6.12595703 -1.97265625 5.04296875 C-0.89269484 2.88189715 -0.89269484 2.88189715 0 0 Z " fill="#CACCCB" transform="translate(141,84)"/>
<path d="M0 0 C0.99 0 1.98 0 3 0 C2.47229401 3.79948314 1.62859821 6.16920193 -1 9 C-1.99 9.33 -2.98 9.66 -4 10 C-2.8905928 6.51329166 -1.73662334 3.22515763 0 0 Z " fill="#CDCFCE" transform="translate(47,52)"/>
<path d="M0 0 C3.43595166 1.52708963 6.11912454 3.59927045 9 6 C8.01 6.66 7.02 7.32 6 8 C3 6.25 3 6.25 0 4 C0 2.68 0 1.36 0 0 Z " fill="#D0D2D1" transform="translate(91,80)"/>
<path d="M0 0 C0.99 0.33 1.98 0.66 3 1 C-1.43076923 6.78461538 -1.43076923 6.78461538 -4.3125 7.875 C-4.869375 7.91625 -5.42625 7.9575 -6 8 C-4.55746343 4.63408134 -2.66735273 2.48952921 0 0 Z " fill="#D8DBDB" transform="translate(18,53)"/>
<path d="M0 0 C0 0.66 0 1.32 0 2 C-6.625 5.125 -6.625 5.125 -10 4 C-7.16124653 -0.25813021 -4.8137938 -0.13010254 0 0 Z " fill="#DADCDC" transform="translate(69,39)"/>
<path d="M0 0 C4.29 0.33 8.58 0.66 13 1 C9.38863788 2.80568106 8.455469 3.24851563 4.75 3.125 C2.89375 3.063125 2.89375 3.063125 1 3 C0.67 2.01 0.34 1.02 0 0 Z " fill="#DFE1E1" transform="translate(104,108)"/>
<path d="M0 0 C1.485 0.99 1.485 0.99 3 2 C3.6875 5.625 3.6875 5.625 4 9 C3.01 9 2.02 9 1 9 C-0.4783226 6.04335481 -0.06032783 3.25770263 0 0 Z " fill="#D5D6D6" transform="translate(80,80)"/>
<path d="M0 0 C0.33 0 0.66 0 1 0 C1 1.98 1 3.96 1 6 C0.01 6.33 -0.98 6.66 -2 7 C-2.125 4.625 -2.125 4.625 -2 2 C-1.34 1.34 -0.68 0.68 0 0 Z " fill="#D7D9D8" transform="translate(70,80)"/>
<path d="M0 0 C0.66 0.33 1.32 0.66 2 1 C0.7260411 3.03833424 -0.61061923 5.03852126 -2 7 C-2.66 7 -3.32 7 -4 7 C-4 5.68 -4 4.36 -4 3 C-2 1.25 -2 1.25 0 0 Z " fill="#C8CAC9" transform="translate(58,80)"/>
</svg>
